<svg width="48" height="48" viewBox="0 0 48 48" fill="none" xmlns="http://www.w3.org/2000/svg">
    <path
        d="M24 0L29.2178 4.52694L36 3.21539L38.2553 9.74473L44.7846 12L43.4731 18.7822L48 24L43.4731 29.2178L44.7846 36L38.2553 38.2553L36 44.7846L29.2178 43.4731L24 48L18.7822 43.4731L12 44.7846L9.74473 38.2553L3.21539 36L4.52694 29.2178L0 24L4.52694 18.7822L3.21539 12L9.74473 9.74473L12 3.21539L18.7822 4.52694L24 0Z"
        fill="#015c65" />
    <path
        d="M17.6432 31.5459L12 17.2241H14.9947L19.3544 28.816H18.1932L22.5937 17.2241H25.5477L19.8434 31.5459H17.6432Z"
        fill="white" />
    <path
        d="M30.7439 31.7496C29.5895 31.7496 28.598 31.5527 27.7695 31.1588C26.9546 30.765 26.2144 30.1742 25.5489 29.3864L27.3825 27.5529C27.8035 28.1098 28.2924 28.5444 28.8493 28.8568C29.4061 29.1556 30.0852 29.305 30.8865 29.305C31.6063 29.305 32.1768 29.1623 32.5978 28.8771C33.0324 28.5919 33.2497 28.198 33.2497 27.6955C33.2497 27.2609 33.1275 26.9078 32.883 26.6362C32.6385 26.3645 32.3126 26.1336 31.9051 25.9435C31.5113 25.7534 31.0699 25.5836 30.5809 25.4342C30.1056 25.2712 29.6234 25.0879 29.1345 24.8841C28.6591 24.6804 28.2177 24.4291 27.8103 24.1304C27.4164 23.818 27.0972 23.4241 26.8528 22.9488C26.6083 22.4598 26.4861 21.8486 26.4861 21.1152C26.4861 20.246 26.6966 19.5058 27.1176 18.8946C27.5387 18.2835 28.1159 17.8149 28.8493 17.4889C29.5827 17.163 30.4112 17 31.3347 17C32.3126 17 33.1954 17.1834 33.9831 17.5501C34.7709 17.9168 35.416 18.3921 35.9185 18.9761L34.085 20.8096C33.664 20.3479 33.2293 20.0083 32.7812 19.791C32.3465 19.5737 31.8508 19.4651 31.294 19.4651C30.6556 19.4651 30.1531 19.5873 29.7864 19.8318C29.4197 20.0762 29.2364 20.4294 29.2364 20.8911C29.2364 21.285 29.3586 21.6042 29.6031 21.8486C29.8475 22.0931 30.1667 22.3036 30.5606 22.4802C30.968 22.6567 31.4094 22.8265 31.8848 22.9895C32.3737 23.1525 32.8559 23.3358 33.3312 23.5396C33.8202 23.7433 34.2616 24.0081 34.6554 24.3341C35.0629 24.66 35.3888 25.0811 35.6333 25.5972C35.8778 26.0997 36 26.7244 36 27.4714C36 28.8024 35.5314 29.8482 34.5943 30.6088C33.6572 31.3694 32.3737 31.7496 30.7439 31.7496Z"
        fill="white" />
</svg>
    